<svg xmlns="http://www.w3.org/2000/svg" id="Layer_1" data-name="Layer 1" viewBox="0 0 582.29 145.47"><defs><style>      .cls-1 {        fill: #fff;        opacity: .6;      }    </style></defs><path class="cls-1" d="M582.27,91.09c-.48-29-24.12-52.37-53.24-52.37-9.6,0-18.6,2.56-26.38,7v-7.02h-26.39v54.15h26.39v-5.5c2.52-12.26,13.37-21.47,26.38-21.47,14.87,0,26.93,12.06,26.93,26.93v52.68h26.33v-54.38h-.02Z"></path><path class="cls-1" d="M106.53,91.98c0-29.42-23.85-53.26-53.26-53.26S0,62.56,0,91.98s23.85,53.26,53.26,53.26c9.83,0,19.03-2.67,26.93-7.31v7.31h26.33v-52.44h-.02c0-.27,.02-.54,.02-.82Zm-53.26,27.75c-14.87,0-26.93-12.06-26.93-26.93s12.06-26.93,26.93-26.93,26.93,12.06,26.93,26.93-12.06,26.93-26.93,26.93Z"></path><path class="cls-1" d="M225.72,91.98s0,0,0,0,0,0,0,0V0h-26.33V46.03c-7.9-4.64-17.1-7.31-26.93-7.31-29.42,0-53.26,23.85-53.26,53.26s23.85,53.26,53.26,53.26,52.74-23.35,53.24-52.33h.02v-.93Zm-53.26,27.75c-14.87,0-26.93-12.06-26.93-26.93s12.06-26.93,26.93-26.93,26.93,12.05,26.93,26.93h0c0,14.88-12.06,26.93-26.93,26.93Z"></path><path class="cls-1" d="M343.9,91.98c0-29.42-23.85-53.26-53.26-53.26s-53.26,23.85-53.26,53.26,23.85,53.26,53.26,53.26c9.83,0,19.03-2.67,26.93-7.31v7.31h26.33v-52.44h-.02c0-.27,.02-.54,.02-.82Zm-53.26,27.75c-14.87,0-26.93-12.06-26.93-26.93s12.06-26.93,26.93-26.93,26.93,12.06,26.93,26.93-12.06,26.93-26.93,26.93Z"></path><path class="cls-1" d="M462.87,92.05c0-29.42-23.85-53.26-53.26-53.26s-53.26,23.85-53.26,53.26,23.85,53.26,53.26,53.26c9.83,0,19.03-2.67,26.93-7.31v7.31h26.33v-52.44h-.02c0-.27,.02-.54,.02-.82Zm-53.26,27.75c-14.87,0-26.93-12.06-26.93-26.93s12.06-26.93,26.93-26.93,26.93,12.06,26.93,26.93-12.06,26.93-26.93,26.93Z"></path></svg>